<mxfile host="app.diagrams.net" modified="2023-03-09T16:52:16.420Z" agent="5.0 (Windows NT 10.0; Win64; x64) AppleWebKit/537.36 (KHTML, like Gecko) Chrome/109.0.0.0 Safari/537.36" etag="CWzGxo-T_yDyFLJPdyKM" version="21.0.6" type="github">
  <diagram name="Page-1" id="Gs4qEUFltZ7bUWOozk17">
    <mxGraphModel dx="1246" dy="505" grid="1" gridSize="10" guides="1" tooltips="1" connect="1" arrows="1" fold="1" page="1" pageScale="1" pageWidth="827" pageHeight="1169" math="0" shadow="0">
      <root>
        <mxCell id="0" />
        <mxCell id="1" parent="0" />
        <mxCell id="IxM3IXugmNxA2LXYIeKf-2" value="Admin" style="shape=umlActor;verticalLabelPosition=bottom;verticalAlign=top;html=1;outlineConnect=0;" parent="1" vertex="1">
          <mxGeometry x="10" y="130" width="30" height="60" as="geometry" />
        </mxCell>
        <mxCell id="IxM3IXugmNxA2LXYIeKf-3" value="Đăng nhập" style="ellipse;whiteSpace=wrap;html=1;" parent="1" vertex="1">
          <mxGeometry x="497" y="30" width="143" height="60" as="geometry" />
        </mxCell>
        <mxCell id="IxM3IXugmNxA2LXYIeKf-4" value="Thông tin cụ thể của thiết bị" style="ellipse;whiteSpace=wrap;html=1;" parent="1" vertex="1">
          <mxGeometry x="466" y="290" width="128" height="60" as="geometry" />
        </mxCell>
        <mxCell id="IxM3IXugmNxA2LXYIeKf-5" value="Danh sách thiết bị" style="ellipse;whiteSpace=wrap;html=1;" parent="1" vertex="1">
          <mxGeometry x="565.5" y="390" width="106" height="60" as="geometry" />
        </mxCell>
        <mxCell id="IxM3IXugmNxA2LXYIeKf-6" value="Bật/tắt các thiết bị&amp;nbsp;" style="ellipse;whiteSpace=wrap;html=1;" parent="1" vertex="1">
          <mxGeometry x="514" y="185" width="138" height="60" as="geometry" />
        </mxCell>
        <mxCell id="IxM3IXugmNxA2LXYIeKf-10" value="Thiết lập hẹn giờ tự động cho thiết bị" style="ellipse;whiteSpace=wrap;html=1;" parent="1" vertex="1">
          <mxGeometry x="330" y="180" width="120" height="70" as="geometry" />
        </mxCell>
        <mxCell id="IxM3IXugmNxA2LXYIeKf-14" value="" style="endArrow=classic;html=1;rounded=0;entryX=0;entryY=0.5;entryDx=0;entryDy=0;exitX=1;exitY=0.3333333333333333;exitDx=0;exitDy=0;exitPerimeter=0;edgeStyle=orthogonalEdgeStyle;fillColor=#dae8fc;strokeColor=#006aff;startArrow=none;" parent="1" source="IxM3IXugmNxA2LXYIeKf-2" target="IxM3IXugmNxA2LXYIeKf-3" edge="1">
          <mxGeometry width="50" height="50" relative="1" as="geometry">
            <mxPoint x="90" y="140" as="sourcePoint" />
            <mxPoint x="140" y="90" as="targetPoint" />
            <Array as="points">
              <mxPoint x="110" y="150" />
              <mxPoint x="110" y="60" />
            </Array>
          </mxGeometry>
        </mxCell>
        <mxCell id="IxM3IXugmNxA2LXYIeKf-17" value="" style="endArrow=classic;html=1;rounded=0;exitX=1;exitY=0.3333333333333333;exitDx=0;exitDy=0;exitPerimeter=0;edgeStyle=orthogonalEdgeStyle;fillColor=#dae8fc;strokeColor=#006aff;entryX=0;entryY=0.5;entryDx=0;entryDy=0;" parent="1" source="IxM3IXugmNxA2LXYIeKf-2" target="IxM3IXugmNxA2LXYIeKf-5" edge="1">
          <mxGeometry width="50" height="50" relative="1" as="geometry">
            <mxPoint x="90" y="270" as="sourcePoint" />
            <mxPoint x="206.00000000000227" y="230" as="targetPoint" />
            <Array as="points">
              <mxPoint x="110" y="150" />
              <mxPoint x="110" y="420" />
            </Array>
          </mxGeometry>
        </mxCell>
        <mxCell id="We5Ly6-lPDfA9tNNfGMa-1" style="edgeStyle=orthogonalEdgeStyle;rounded=0;orthogonalLoop=1;jettySize=auto;html=1;exitX=0;exitY=0.3333333333333333;exitDx=0;exitDy=0;exitPerimeter=0;entryX=1;entryY=0.5;entryDx=0;entryDy=0;fillColor=#e51400;strokeColor=#FF0800;" parent="1" source="mgnu9aJAeOz-eLiKnWUO-1" target="HuLzoXBlrntYcY_2X0fd-12" edge="1">
          <mxGeometry relative="1" as="geometry">
            <Array as="points">
              <mxPoint x="1070" y="1035" />
            </Array>
          </mxGeometry>
        </mxCell>
        <mxCell id="mgnu9aJAeOz-eLiKnWUO-1" value="Cảm biến" style="shape=umlActor;verticalLabelPosition=bottom;verticalAlign=top;html=1;outlineConnect=0;" parent="1" vertex="1">
          <mxGeometry x="1110" y="970" width="30" height="60" as="geometry" />
        </mxCell>
        <mxCell id="mgnu9aJAeOz-eLiKnWUO-2" value="Người dùng thông thường" style="shape=umlActor;verticalLabelPosition=bottom;verticalAlign=top;html=1;outlineConnect=0;" parent="1" vertex="1">
          <mxGeometry x="1140" y="80" width="30" height="60" as="geometry" />
        </mxCell>
        <mxCell id="mgnu9aJAeOz-eLiKnWUO-5" value="" style="endArrow=classic;html=1;rounded=0;exitX=0;exitY=0.3333333333333333;exitDx=0;exitDy=0;exitPerimeter=0;entryX=1;entryY=0.5;entryDx=0;entryDy=0;edgeStyle=orthogonalEdgeStyle;fillColor=#008a00;strokeColor=#00ff00;" parent="1" source="mgnu9aJAeOz-eLiKnWUO-2" target="IxM3IXugmNxA2LXYIeKf-3" edge="1">
          <mxGeometry width="50" height="50" relative="1" as="geometry">
            <mxPoint x="720" y="360" as="sourcePoint" />
            <mxPoint x="770" y="310" as="targetPoint" />
            <Array as="points">
              <mxPoint x="1030" y="100" />
              <mxPoint x="1030" y="60" />
            </Array>
          </mxGeometry>
        </mxCell>
        <mxCell id="mgnu9aJAeOz-eLiKnWUO-7" value="&amp;lt;&amp;lt;extend&amp;gt;&amp;gt;" style="endArrow=classic;html=1;rounded=0;dashed=1;" parent="1" source="IxM3IXugmNxA2LXYIeKf-6" target="IxM3IXugmNxA2LXYIeKf-4" edge="1">
          <mxGeometry width="50" height="50" relative="1" as="geometry">
            <mxPoint x="590" y="400" as="sourcePoint" />
            <mxPoint x="640" y="350" as="targetPoint" />
          </mxGeometry>
        </mxCell>
        <mxCell id="mgnu9aJAeOz-eLiKnWUO-8" value="&amp;lt;&amp;lt;extend&amp;gt;&amp;gt;" style="endArrow=classic;html=1;rounded=0;dashed=1;" parent="1" source="IxM3IXugmNxA2LXYIeKf-10" target="IxM3IXugmNxA2LXYIeKf-4" edge="1">
          <mxGeometry width="50" height="50" relative="1" as="geometry">
            <mxPoint x="519" y="484" as="sourcePoint" />
            <mxPoint x="355" y="393" as="targetPoint" />
          </mxGeometry>
        </mxCell>
        <mxCell id="mgnu9aJAeOz-eLiKnWUO-9" value="Danh sách tài khoản người dùng" style="ellipse;whiteSpace=wrap;html=1;" parent="1" vertex="1">
          <mxGeometry x="492" y="100" width="160" height="60" as="geometry" />
        </mxCell>
        <mxCell id="mgnu9aJAeOz-eLiKnWUO-10" value="" style="endArrow=classic;html=1;rounded=0;exitX=1;exitY=0.3333333333333333;exitDx=0;exitDy=0;exitPerimeter=0;entryX=0;entryY=0.5;entryDx=0;entryDy=0;edgeStyle=orthogonalEdgeStyle;fillColor=#dae8fc;strokeColor=#006aff;" parent="1" source="IxM3IXugmNxA2LXYIeKf-2" target="mgnu9aJAeOz-eLiKnWUO-9" edge="1">
          <mxGeometry width="50" height="50" relative="1" as="geometry">
            <mxPoint x="560" y="240" as="sourcePoint" />
            <mxPoint x="610" y="190" as="targetPoint" />
            <Array as="points">
              <mxPoint x="110" y="135" />
              <mxPoint x="110" y="130" />
              <mxPoint x="490" y="130" />
            </Array>
          </mxGeometry>
        </mxCell>
        <mxCell id="4kdjvfuADfTnEWXonBw7-1" value="Thiết lập thông số cho thiết bị" style="ellipse;whiteSpace=wrap;html=1;" parent="1" vertex="1">
          <mxGeometry x="239.25" y="280" width="140" height="70" as="geometry" />
        </mxCell>
        <mxCell id="4kdjvfuADfTnEWXonBw7-2" value="&amp;lt;&amp;lt;extend&amp;gt;&amp;gt;" style="endArrow=classic;html=1;rounded=0;dashed=1;" parent="1" source="4kdjvfuADfTnEWXonBw7-1" target="IxM3IXugmNxA2LXYIeKf-4" edge="1">
          <mxGeometry width="50" height="50" relative="1" as="geometry">
            <mxPoint x="443" y="287" as="sourcePoint" />
            <mxPoint x="329" y="257" as="targetPoint" />
          </mxGeometry>
        </mxCell>
        <mxCell id="4kdjvfuADfTnEWXonBw7-3" value="Thông tin cụ thể của cảm biến" style="ellipse;whiteSpace=wrap;html=1;" parent="1" vertex="1">
          <mxGeometry x="602.75" y="530" width="143" height="60" as="geometry" />
        </mxCell>
        <mxCell id="4kdjvfuADfTnEWXonBw7-4" value="" style="endArrow=classic;html=1;rounded=0;strokeColor=#006aff;exitX=1;exitY=0.3333333333333333;exitDx=0;exitDy=0;exitPerimeter=0;entryX=0;entryY=0.5;entryDx=0;entryDy=0;edgeStyle=orthogonalEdgeStyle;fillColor=#dae8fc;" parent="1" source="IxM3IXugmNxA2LXYIeKf-2" target="HuLzoXBlrntYcY_2X0fd-4" edge="1">
          <mxGeometry width="50" height="50" relative="1" as="geometry">
            <mxPoint x="570" y="400" as="sourcePoint" />
            <mxPoint x="620" y="350" as="targetPoint" />
            <Array as="points">
              <mxPoint x="110" y="150" />
              <mxPoint x="110" y="650" />
              <mxPoint x="492" y="650" />
            </Array>
          </mxGeometry>
        </mxCell>
        <mxCell id="4kdjvfuADfTnEWXonBw7-6" value="" style="endArrow=classic;html=1;rounded=0;strokeColor=#5eff00;exitX=0;exitY=0.3333333333333333;exitDx=0;exitDy=0;exitPerimeter=0;entryX=1;entryY=0.5;entryDx=0;entryDy=0;fillColor=#d5e8d4;edgeStyle=orthogonalEdgeStyle;" parent="1" source="mgnu9aJAeOz-eLiKnWUO-2" target="HuLzoXBlrntYcY_2X0fd-4" edge="1">
          <mxGeometry width="50" height="50" relative="1" as="geometry">
            <mxPoint x="570" y="400" as="sourcePoint" />
            <mxPoint x="620" y="350" as="targetPoint" />
            <Array as="points">
              <mxPoint x="1030" y="100" />
              <mxPoint x="1030" y="650" />
            </Array>
          </mxGeometry>
        </mxCell>
        <mxCell id="4kdjvfuADfTnEWXonBw7-14" value="Xem lịch sử hoạt động của thiết bị" style="ellipse;whiteSpace=wrap;html=1;" parent="1" vertex="1">
          <mxGeometry x="683.5" y="240" width="86.5" height="60" as="geometry" />
        </mxCell>
        <mxCell id="4kdjvfuADfTnEWXonBw7-15" value="Thống kê thông số cảm biến" style="ellipse;whiteSpace=wrap;html=1;" parent="1" vertex="1">
          <mxGeometry x="770" y="460" width="100" height="60" as="geometry" />
        </mxCell>
        <mxCell id="4kdjvfuADfTnEWXonBw7-20" value="Nhận thông báo trục trặc kỹ thuật" style="ellipse;whiteSpace=wrap;html=1;" parent="1" vertex="1">
          <mxGeometry x="330" y="725" width="120" height="70" as="geometry" />
        </mxCell>
        <mxCell id="4kdjvfuADfTnEWXonBw7-21" value="Nhận thông báo cảm biến vượt ngưỡng" style="ellipse;whiteSpace=wrap;html=1;" parent="1" vertex="1">
          <mxGeometry x="479.75" y="700" width="123" height="70" as="geometry" />
        </mxCell>
        <mxCell id="4kdjvfuADfTnEWXonBw7-22" value="Nhận thông báo cảm biến hồng ngoại" style="ellipse;whiteSpace=wrap;html=1;" parent="1" vertex="1">
          <mxGeometry x="652" y="710" width="130" height="70" as="geometry" />
        </mxCell>
        <mxCell id="4kdjvfuADfTnEWXonBw7-24" value="" style="endArrow=classic;html=1;rounded=0;strokeColor=#5EFF00;exitX=0;exitY=0.3333333333333333;exitDx=0;exitDy=0;exitPerimeter=0;entryX=1;entryY=0.5;entryDx=0;entryDy=0;edgeStyle=orthogonalEdgeStyle;" parent="1" source="mgnu9aJAeOz-eLiKnWUO-2" target="HuLzoXBlrntYcY_2X0fd-8" edge="1">
          <mxGeometry width="50" height="50" relative="1" as="geometry">
            <mxPoint x="640" y="490" as="sourcePoint" />
            <mxPoint x="690" y="440" as="targetPoint" />
            <Array as="points">
              <mxPoint x="1030" y="100" />
              <mxPoint x="1030" y="840" />
            </Array>
          </mxGeometry>
        </mxCell>
        <mxCell id="4kdjvfuADfTnEWXonBw7-27" value="" style="endArrow=classic;html=1;rounded=0;strokeColor=#006aff;exitX=1;exitY=0.3333333333333333;exitDx=0;exitDy=0;exitPerimeter=0;entryX=0;entryY=0.5;entryDx=0;entryDy=0;edgeStyle=orthogonalEdgeStyle;" parent="1" source="IxM3IXugmNxA2LXYIeKf-2" target="HuLzoXBlrntYcY_2X0fd-8" edge="1">
          <mxGeometry width="50" height="50" relative="1" as="geometry">
            <mxPoint x="640" y="580" as="sourcePoint" />
            <mxPoint x="690" y="530" as="targetPoint" />
            <Array as="points">
              <mxPoint x="110" y="150" />
              <mxPoint x="110" y="840" />
            </Array>
          </mxGeometry>
        </mxCell>
        <mxCell id="YS6VelFkqiLriuPiUzbp-1" value="&amp;lt;&amp;lt;extend&amp;gt;&amp;gt;" style="endArrow=classic;html=1;rounded=0;dashed=1;" parent="1" source="4kdjvfuADfTnEWXonBw7-14" target="IxM3IXugmNxA2LXYIeKf-4" edge="1">
          <mxGeometry width="50" height="50" relative="1" as="geometry">
            <mxPoint x="422" y="366" as="sourcePoint" />
            <mxPoint x="320" y="261" as="targetPoint" />
          </mxGeometry>
        </mxCell>
        <mxCell id="YS6VelFkqiLriuPiUzbp-2" value="&amp;lt;&amp;lt;extend&amp;gt;&amp;gt;" style="endArrow=classic;html=1;rounded=0;dashed=1;" parent="1" source="4kdjvfuADfTnEWXonBw7-15" target="4kdjvfuADfTnEWXonBw7-3" edge="1">
          <mxGeometry width="50" height="50" relative="1" as="geometry">
            <mxPoint x="745" y="544" as="sourcePoint" />
            <mxPoint x="666" y="491" as="targetPoint" />
          </mxGeometry>
        </mxCell>
        <mxCell id="HuLzoXBlrntYcY_2X0fd-3" value="Cloud server" style="shape=umlActor;verticalLabelPosition=bottom;verticalAlign=top;html=1;outlineConnect=0;" parent="1" vertex="1">
          <mxGeometry x="50" y="980" width="30" height="60" as="geometry" />
        </mxCell>
        <mxCell id="HuLzoXBlrntYcY_2X0fd-4" value="Danh sách cảm biến" style="ellipse;whiteSpace=wrap;html=1;" parent="1" vertex="1">
          <mxGeometry x="497" y="620" width="135" height="60" as="geometry" />
        </mxCell>
        <mxCell id="HuLzoXBlrntYcY_2X0fd-5" value="&amp;lt;&amp;lt;extend&amp;gt;&amp;gt;" style="endArrow=classic;html=1;rounded=0;dashed=1;" parent="1" source="IxM3IXugmNxA2LXYIeKf-4" target="IxM3IXugmNxA2LXYIeKf-5" edge="1">
          <mxGeometry x="-0.0094" width="50" height="50" relative="1" as="geometry">
            <mxPoint x="745" y="544" as="sourcePoint" />
            <mxPoint x="666" y="491" as="targetPoint" />
            <mxPoint as="offset" />
          </mxGeometry>
        </mxCell>
        <mxCell id="HuLzoXBlrntYcY_2X0fd-6" value="&amp;lt;&amp;lt;extend&amp;gt;&amp;gt;" style="endArrow=classic;html=1;rounded=0;dashed=1;" parent="1" source="4kdjvfuADfTnEWXonBw7-3" target="HuLzoXBlrntYcY_2X0fd-4" edge="1">
          <mxGeometry width="50" height="50" relative="1" as="geometry">
            <mxPoint x="557" y="470" as="sourcePoint" />
            <mxPoint x="450" y="510" as="targetPoint" />
          </mxGeometry>
        </mxCell>
        <mxCell id="HuLzoXBlrntYcY_2X0fd-7" value="Điều khiển thiết bị" style="ellipse;whiteSpace=wrap;html=1;" parent="1" vertex="1">
          <mxGeometry x="379.25" y="930" width="131.75" height="60" as="geometry" />
        </mxCell>
        <mxCell id="HuLzoXBlrntYcY_2X0fd-8" value="Nhận thông báo&amp;nbsp;" style="ellipse;whiteSpace=wrap;html=1;" parent="1" vertex="1">
          <mxGeometry x="479.75" y="810" width="100.5" height="60" as="geometry" />
        </mxCell>
        <mxCell id="HuLzoXBlrntYcY_2X0fd-9" value="&amp;lt;&amp;lt;extend&amp;gt;&amp;gt;" style="endArrow=classic;html=1;rounded=0;dashed=1;" parent="1" source="4kdjvfuADfTnEWXonBw7-20" target="HuLzoXBlrntYcY_2X0fd-8" edge="1">
          <mxGeometry width="50" height="50" relative="1" as="geometry">
            <mxPoint x="690" y="713" as="sourcePoint" />
            <mxPoint x="652" y="661" as="targetPoint" />
          </mxGeometry>
        </mxCell>
        <mxCell id="HuLzoXBlrntYcY_2X0fd-10" value="&amp;lt;&amp;lt;extend&amp;gt;&amp;gt;" style="endArrow=classic;html=1;rounded=0;dashed=1;" parent="1" source="4kdjvfuADfTnEWXonBw7-21" target="HuLzoXBlrntYcY_2X0fd-8" edge="1">
          <mxGeometry width="50" height="50" relative="1" as="geometry">
            <mxPoint x="443" y="727" as="sourcePoint" />
            <mxPoint x="396" y="764" as="targetPoint" />
          </mxGeometry>
        </mxCell>
        <mxCell id="HuLzoXBlrntYcY_2X0fd-11" value="&amp;lt;&amp;lt;extend&amp;gt;&amp;gt;" style="endArrow=classic;html=1;rounded=0;dashed=1;" parent="1" source="4kdjvfuADfTnEWXonBw7-22" target="HuLzoXBlrntYcY_2X0fd-8" edge="1">
          <mxGeometry width="50" height="50" relative="1" as="geometry">
            <mxPoint x="524" y="785" as="sourcePoint" />
            <mxPoint x="411" y="785" as="targetPoint" />
          </mxGeometry>
        </mxCell>
        <mxCell id="HuLzoXBlrntYcY_2X0fd-12" value="Gửi/nhận thông tin&amp;nbsp;" style="ellipse;whiteSpace=wrap;html=1;" parent="1" vertex="1">
          <mxGeometry x="540" y="1000" width="131.5" height="70" as="geometry" />
        </mxCell>
        <mxCell id="HuLzoXBlrntYcY_2X0fd-13" value="" style="endArrow=classic;html=1;rounded=0;exitX=1;exitY=0.3333333333333333;exitDx=0;exitDy=0;exitPerimeter=0;entryX=0;entryY=0.5;entryDx=0;entryDy=0;fillColor=#e1d5e7;strokeColor=#ae00ff;edgeStyle=orthogonalEdgeStyle;" parent="1" source="HuLzoXBlrntYcY_2X0fd-3" target="HuLzoXBlrntYcY_2X0fd-7" edge="1">
          <mxGeometry width="50" height="50" relative="1" as="geometry">
            <mxPoint x="250" y="770" as="sourcePoint" />
            <mxPoint x="300" y="720" as="targetPoint" />
            <Array as="points">
              <mxPoint x="120" y="1000" />
              <mxPoint x="120" y="960" />
            </Array>
          </mxGeometry>
        </mxCell>
        <mxCell id="HuLzoXBlrntYcY_2X0fd-14" value="" style="endArrow=classic;html=1;rounded=0;exitX=1;exitY=0.3333333333333333;exitDx=0;exitDy=0;exitPerimeter=0;entryX=0;entryY=0.5;entryDx=0;entryDy=0;fillColor=#e1d5e7;strokeColor=#ae00ff;edgeStyle=orthogonalEdgeStyle;" parent="1" source="HuLzoXBlrntYcY_2X0fd-3" target="HuLzoXBlrntYcY_2X0fd-12" edge="1">
          <mxGeometry width="50" height="50" relative="1" as="geometry">
            <mxPoint x="100" y="1000" as="sourcePoint" />
            <mxPoint x="247" y="920" as="targetPoint" />
            <Array as="points">
              <mxPoint x="120" y="1000" />
              <mxPoint x="120" y="1035" />
            </Array>
          </mxGeometry>
        </mxCell>
        <mxCell id="HuLzoXBlrntYcY_2X0fd-15" value="Gửi thông báo&amp;nbsp;" style="ellipse;whiteSpace=wrap;html=1;" parent="1" vertex="1">
          <mxGeometry x="379.25" y="860" width="100.5" height="60" as="geometry" />
        </mxCell>
        <mxCell id="HuLzoXBlrntYcY_2X0fd-18" value="" style="endArrow=classic;html=1;rounded=0;entryX=0;entryY=0.5;entryDx=0;entryDy=0;exitX=1;exitY=0.3333333333333333;exitDx=0;exitDy=0;exitPerimeter=0;edgeStyle=orthogonalEdgeStyle;fillColor=#e1d5e7;strokeColor=#ae00ff;" parent="1" source="HuLzoXBlrntYcY_2X0fd-3" target="HuLzoXBlrntYcY_2X0fd-15" edge="1">
          <mxGeometry width="50" height="50" relative="1" as="geometry">
            <mxPoint x="90" y="1050" as="sourcePoint" />
            <mxPoint x="288" y="1020" as="targetPoint" />
            <Array as="points">
              <mxPoint x="120" y="1000" />
              <mxPoint x="120" y="890" />
            </Array>
          </mxGeometry>
        </mxCell>
        <mxCell id="HuLzoXBlrntYcY_2X0fd-19" value="Thiết lập cảm biến" style="ellipse;whiteSpace=wrap;html=1;" parent="1" vertex="1">
          <mxGeometry x="466" y="460" width="106" height="60" as="geometry" />
        </mxCell>
        <mxCell id="mtpYUoKMyulHPlp0uqmc-1" value="Gửi thông tin đến&lt;br&gt;màn hình LCD" style="ellipse;whiteSpace=wrap;html=1;" parent="1" vertex="1">
          <mxGeometry x="379.5" y="1080" width="131.5" height="70" as="geometry" />
        </mxCell>
        <mxCell id="mtpYUoKMyulHPlp0uqmc-2" value="" style="endArrow=classic;html=1;rounded=0;exitX=1;exitY=0.3333333333333333;exitDx=0;exitDy=0;exitPerimeter=0;entryX=0;entryY=0.5;entryDx=0;entryDy=0;fillColor=#e1d5e7;strokeColor=#ae00ff;edgeStyle=orthogonalEdgeStyle;" parent="1" source="HuLzoXBlrntYcY_2X0fd-3" target="mtpYUoKMyulHPlp0uqmc-1" edge="1">
          <mxGeometry width="50" height="50" relative="1" as="geometry">
            <mxPoint x="90" y="1050" as="sourcePoint" />
            <mxPoint x="317" y="1045" as="targetPoint" />
            <Array as="points">
              <mxPoint x="80" y="1000" />
              <mxPoint x="120" y="1000" />
              <mxPoint x="120" y="1115" />
            </Array>
          </mxGeometry>
        </mxCell>
        <mxCell id="O9DLteqPQKSR5ozZhYBC-6" value="" style="endArrow=none;html=1;rounded=0;" parent="1" edge="1">
          <mxGeometry width="50" height="50" relative="1" as="geometry">
            <mxPoint x="1000" y="1160" as="sourcePoint" />
            <mxPoint x="990" y="1160" as="targetPoint" />
            <Array as="points">
              <mxPoint x="160" y="1160" />
              <mxPoint x="160" y="10" />
              <mxPoint x="560" y="10" />
              <mxPoint x="990" y="10" />
            </Array>
          </mxGeometry>
        </mxCell>
        <mxCell id="zK1ObX06xSevNXCaxRqO-1" value="" style="endArrow=classic;html=1;rounded=0;exitX=0;exitY=0.3333333333333333;exitDx=0;exitDy=0;exitPerimeter=0;entryX=1;entryY=0.5;entryDx=0;entryDy=0;strokeColor=#5EFF00;edgeStyle=orthogonalEdgeStyle;" parent="1" source="mgnu9aJAeOz-eLiKnWUO-2" target="IxM3IXugmNxA2LXYIeKf-5" edge="1">
          <mxGeometry width="50" height="50" relative="1" as="geometry">
            <mxPoint x="500" y="300" as="sourcePoint" />
            <mxPoint x="550" y="250" as="targetPoint" />
            <Array as="points">
              <mxPoint x="1030" y="100" />
              <mxPoint x="1030" y="420" />
            </Array>
          </mxGeometry>
        </mxCell>
        <mxCell id="Dvl4Qk7DcclksVOZRJWa-1" value="Tạo tài khoản mới" style="ellipse;whiteSpace=wrap;html=1;" parent="1" vertex="1">
          <mxGeometry x="730" y="80" width="106" height="60" as="geometry" />
        </mxCell>
        <mxCell id="Dvl4Qk7DcclksVOZRJWa-2" value="Xóa tài khoản" style="ellipse;whiteSpace=wrap;html=1;" parent="1" vertex="1">
          <mxGeometry x="730" y="160" width="106" height="60" as="geometry" />
        </mxCell>
        <mxCell id="Dvl4Qk7DcclksVOZRJWa-3" value="&amp;lt;&amp;lt;extend&amp;gt;&amp;gt;" style="endArrow=classic;html=1;rounded=0;dashed=1;" parent="1" source="Dvl4Qk7DcclksVOZRJWa-1" target="mgnu9aJAeOz-eLiKnWUO-9" edge="1">
          <mxGeometry width="50" height="50" relative="1" as="geometry">
            <mxPoint x="808" y="340" as="sourcePoint" />
            <mxPoint x="672" y="393" as="targetPoint" />
          </mxGeometry>
        </mxCell>
        <mxCell id="Dvl4Qk7DcclksVOZRJWa-4" value="&amp;lt;&amp;lt;extend&amp;gt;&amp;gt;" style="endArrow=classic;html=1;rounded=0;dashed=1;" parent="1" source="Dvl4Qk7DcclksVOZRJWa-2" target="mgnu9aJAeOz-eLiKnWUO-9" edge="1">
          <mxGeometry width="50" height="50" relative="1" as="geometry">
            <mxPoint x="741" y="125" as="sourcePoint" />
            <mxPoint x="660" y="133" as="targetPoint" />
          </mxGeometry>
        </mxCell>
        <mxCell id="Dvl4Qk7DcclksVOZRJWa-5" value="&amp;lt;&amp;lt;extend&amp;gt;&amp;gt;" style="endArrow=classic;html=1;rounded=0;dashed=1;" parent="1" source="HuLzoXBlrntYcY_2X0fd-19" target="4kdjvfuADfTnEWXonBw7-3" edge="1">
          <mxGeometry width="50" height="50" relative="1" as="geometry">
            <mxPoint x="792" y="520" as="sourcePoint" />
            <mxPoint x="720" y="557" as="targetPoint" />
          </mxGeometry>
        </mxCell>
        <mxCell id="Ebhskz-XtMlUNa1snjmE-1" value="Admin" style="shape=umlActor;verticalLabelPosition=bottom;verticalAlign=top;html=1;outlineConnect=0;" vertex="1" parent="1">
          <mxGeometry x="50" y="1320" width="30" height="60" as="geometry" />
        </mxCell>
        <mxCell id="Ebhskz-XtMlUNa1snjmE-2" value="Đăng nhập" style="ellipse;whiteSpace=wrap;html=1;" vertex="1" parent="1">
          <mxGeometry x="537" y="1220" width="143" height="60" as="geometry" />
        </mxCell>
        <mxCell id="Ebhskz-XtMlUNa1snjmE-3" value="Thông tin cụ thể của thiết bị" style="ellipse;whiteSpace=wrap;html=1;" vertex="1" parent="1">
          <mxGeometry x="506" y="1480" width="128" height="60" as="geometry" />
        </mxCell>
        <mxCell id="Ebhskz-XtMlUNa1snjmE-4" value="Danh sách thiết bị" style="ellipse;whiteSpace=wrap;html=1;" vertex="1" parent="1">
          <mxGeometry x="605.5" y="1580" width="106" height="60" as="geometry" />
        </mxCell>
        <mxCell id="Ebhskz-XtMlUNa1snjmE-5" value="Bật/tắt các thiết bị&amp;nbsp;" style="ellipse;whiteSpace=wrap;html=1;" vertex="1" parent="1">
          <mxGeometry x="554" y="1375" width="138" height="60" as="geometry" />
        </mxCell>
        <mxCell id="Ebhskz-XtMlUNa1snjmE-6" value="Thiết lập hẹn giờ tự động cho thiết bị" style="ellipse;whiteSpace=wrap;html=1;" vertex="1" parent="1">
          <mxGeometry x="370" y="1370" width="120" height="70" as="geometry" />
        </mxCell>
        <mxCell id="Ebhskz-XtMlUNa1snjmE-7" value="" style="endArrow=classic;html=1;rounded=0;entryX=0;entryY=0.5;entryDx=0;entryDy=0;exitX=1;exitY=0.3333333333333333;exitDx=0;exitDy=0;exitPerimeter=0;edgeStyle=orthogonalEdgeStyle;fillColor=#dae8fc;strokeColor=#006aff;startArrow=none;" edge="1" parent="1" source="Ebhskz-XtMlUNa1snjmE-1" target="Ebhskz-XtMlUNa1snjmE-2">
          <mxGeometry width="50" height="50" relative="1" as="geometry">
            <mxPoint x="130" y="1330" as="sourcePoint" />
            <mxPoint x="180" y="1280" as="targetPoint" />
            <Array as="points">
              <mxPoint x="150" y="1340" />
              <mxPoint x="150" y="1250" />
            </Array>
          </mxGeometry>
        </mxCell>
        <mxCell id="Ebhskz-XtMlUNa1snjmE-8" value="" style="endArrow=classic;html=1;rounded=0;exitX=1;exitY=0.3333333333333333;exitDx=0;exitDy=0;exitPerimeter=0;edgeStyle=orthogonalEdgeStyle;fillColor=#dae8fc;strokeColor=#006aff;entryX=0;entryY=0.5;entryDx=0;entryDy=0;" edge="1" parent="1" source="Ebhskz-XtMlUNa1snjmE-1" target="Ebhskz-XtMlUNa1snjmE-4">
          <mxGeometry width="50" height="50" relative="1" as="geometry">
            <mxPoint x="130" y="1460" as="sourcePoint" />
            <mxPoint x="246.00000000000227" y="1420" as="targetPoint" />
            <Array as="points">
              <mxPoint x="150" y="1340" />
              <mxPoint x="150" y="1610" />
            </Array>
          </mxGeometry>
        </mxCell>
        <mxCell id="Ebhskz-XtMlUNa1snjmE-9" style="edgeStyle=orthogonalEdgeStyle;rounded=0;orthogonalLoop=1;jettySize=auto;html=1;exitX=0;exitY=0.3333333333333333;exitDx=0;exitDy=0;exitPerimeter=0;entryX=1;entryY=0.5;entryDx=0;entryDy=0;fillColor=#e51400;strokeColor=#FF0800;" edge="1" parent="1" source="Ebhskz-XtMlUNa1snjmE-10" target="Ebhskz-XtMlUNa1snjmE-40">
          <mxGeometry relative="1" as="geometry">
            <Array as="points">
              <mxPoint x="1110" y="2225" />
            </Array>
          </mxGeometry>
        </mxCell>
        <mxCell id="Ebhskz-XtMlUNa1snjmE-10" value="Cảm biến" style="shape=umlActor;verticalLabelPosition=bottom;verticalAlign=top;html=1;outlineConnect=0;" vertex="1" parent="1">
          <mxGeometry x="1150" y="2160" width="30" height="60" as="geometry" />
        </mxCell>
        <mxCell id="Ebhskz-XtMlUNa1snjmE-11" value="Người dùng thông thường" style="shape=umlActor;verticalLabelPosition=bottom;verticalAlign=top;html=1;outlineConnect=0;" vertex="1" parent="1">
          <mxGeometry x="1180" y="1270" width="30" height="60" as="geometry" />
        </mxCell>
        <mxCell id="Ebhskz-XtMlUNa1snjmE-12" value="" style="endArrow=classic;html=1;rounded=0;exitX=0;exitY=0.3333333333333333;exitDx=0;exitDy=0;exitPerimeter=0;entryX=1;entryY=0.5;entryDx=0;entryDy=0;edgeStyle=orthogonalEdgeStyle;fillColor=#008a00;strokeColor=#00ff00;" edge="1" parent="1" source="Ebhskz-XtMlUNa1snjmE-11" target="Ebhskz-XtMlUNa1snjmE-2">
          <mxGeometry width="50" height="50" relative="1" as="geometry">
            <mxPoint x="760" y="1550" as="sourcePoint" />
            <mxPoint x="810" y="1500" as="targetPoint" />
            <Array as="points">
              <mxPoint x="1070" y="1290" />
              <mxPoint x="1070" y="1250" />
            </Array>
          </mxGeometry>
        </mxCell>
        <mxCell id="Ebhskz-XtMlUNa1snjmE-13" value="&amp;lt;&amp;lt;extend&amp;gt;&amp;gt;" style="endArrow=classic;html=1;rounded=0;dashed=1;" edge="1" parent="1" source="Ebhskz-XtMlUNa1snjmE-5" target="Ebhskz-XtMlUNa1snjmE-3">
          <mxGeometry width="50" height="50" relative="1" as="geometry">
            <mxPoint x="630" y="1590" as="sourcePoint" />
            <mxPoint x="680" y="1540" as="targetPoint" />
          </mxGeometry>
        </mxCell>
        <mxCell id="Ebhskz-XtMlUNa1snjmE-14" value="&amp;lt;&amp;lt;extend&amp;gt;&amp;gt;" style="endArrow=classic;html=1;rounded=0;dashed=1;" edge="1" parent="1" source="Ebhskz-XtMlUNa1snjmE-6" target="Ebhskz-XtMlUNa1snjmE-3">
          <mxGeometry width="50" height="50" relative="1" as="geometry">
            <mxPoint x="559" y="1674" as="sourcePoint" />
            <mxPoint x="395" y="1583" as="targetPoint" />
          </mxGeometry>
        </mxCell>
        <mxCell id="Ebhskz-XtMlUNa1snjmE-15" value="Danh sách tài khoản người dùng" style="ellipse;whiteSpace=wrap;html=1;" vertex="1" parent="1">
          <mxGeometry x="532" y="1290" width="160" height="60" as="geometry" />
        </mxCell>
        <mxCell id="Ebhskz-XtMlUNa1snjmE-16" value="" style="endArrow=classic;html=1;rounded=0;exitX=1;exitY=0.3333333333333333;exitDx=0;exitDy=0;exitPerimeter=0;entryX=0;entryY=0.5;entryDx=0;entryDy=0;edgeStyle=orthogonalEdgeStyle;fillColor=#dae8fc;strokeColor=#006aff;" edge="1" parent="1" source="Ebhskz-XtMlUNa1snjmE-1" target="Ebhskz-XtMlUNa1snjmE-15">
          <mxGeometry width="50" height="50" relative="1" as="geometry">
            <mxPoint x="600" y="1430" as="sourcePoint" />
            <mxPoint x="650" y="1380" as="targetPoint" />
            <Array as="points">
              <mxPoint x="150" y="1325" />
              <mxPoint x="150" y="1320" />
              <mxPoint x="530" y="1320" />
            </Array>
          </mxGeometry>
        </mxCell>
        <mxCell id="Ebhskz-XtMlUNa1snjmE-17" value="Thiết lập thông số cho thiết bị" style="ellipse;whiteSpace=wrap;html=1;" vertex="1" parent="1">
          <mxGeometry x="279.25" y="1470" width="140" height="70" as="geometry" />
        </mxCell>
        <mxCell id="Ebhskz-XtMlUNa1snjmE-18" value="&amp;lt;&amp;lt;extend&amp;gt;&amp;gt;" style="endArrow=classic;html=1;rounded=0;dashed=1;" edge="1" parent="1" source="Ebhskz-XtMlUNa1snjmE-17" target="Ebhskz-XtMlUNa1snjmE-3">
          <mxGeometry width="50" height="50" relative="1" as="geometry">
            <mxPoint x="483" y="1477" as="sourcePoint" />
            <mxPoint x="369" y="1447" as="targetPoint" />
          </mxGeometry>
        </mxCell>
        <mxCell id="Ebhskz-XtMlUNa1snjmE-19" value="Thông tin cụ thể của cảm biến" style="ellipse;whiteSpace=wrap;html=1;" vertex="1" parent="1">
          <mxGeometry x="642.75" y="1720" width="143" height="60" as="geometry" />
        </mxCell>
        <mxCell id="Ebhskz-XtMlUNa1snjmE-20" value="" style="endArrow=classic;html=1;rounded=0;strokeColor=#006aff;exitX=1;exitY=0.3333333333333333;exitDx=0;exitDy=0;exitPerimeter=0;entryX=0;entryY=0.5;entryDx=0;entryDy=0;edgeStyle=orthogonalEdgeStyle;fillColor=#dae8fc;" edge="1" parent="1" source="Ebhskz-XtMlUNa1snjmE-1" target="Ebhskz-XtMlUNa1snjmE-32">
          <mxGeometry width="50" height="50" relative="1" as="geometry">
            <mxPoint x="610" y="1590" as="sourcePoint" />
            <mxPoint x="660" y="1540" as="targetPoint" />
            <Array as="points">
              <mxPoint x="150" y="1340" />
              <mxPoint x="150" y="1840" />
              <mxPoint x="532" y="1840" />
            </Array>
          </mxGeometry>
        </mxCell>
        <mxCell id="Ebhskz-XtMlUNa1snjmE-21" value="" style="endArrow=classic;html=1;rounded=0;strokeColor=#5eff00;exitX=0;exitY=0.3333333333333333;exitDx=0;exitDy=0;exitPerimeter=0;entryX=1;entryY=0.5;entryDx=0;entryDy=0;fillColor=#d5e8d4;edgeStyle=orthogonalEdgeStyle;" edge="1" parent="1" source="Ebhskz-XtMlUNa1snjmE-11" target="Ebhskz-XtMlUNa1snjmE-32">
          <mxGeometry width="50" height="50" relative="1" as="geometry">
            <mxPoint x="610" y="1590" as="sourcePoint" />
            <mxPoint x="660" y="1540" as="targetPoint" />
            <Array as="points">
              <mxPoint x="1070" y="1290" />
              <mxPoint x="1070" y="1840" />
            </Array>
          </mxGeometry>
        </mxCell>
        <mxCell id="Ebhskz-XtMlUNa1snjmE-22" value="Xem lịch sử hoạt động của thiết bị" style="ellipse;whiteSpace=wrap;html=1;" vertex="1" parent="1">
          <mxGeometry x="723.5" y="1430" width="86.5" height="60" as="geometry" />
        </mxCell>
        <mxCell id="Ebhskz-XtMlUNa1snjmE-23" value="Thống kê thông số cảm biến" style="ellipse;whiteSpace=wrap;html=1;" vertex="1" parent="1">
          <mxGeometry x="810" y="1650" width="100" height="60" as="geometry" />
        </mxCell>
        <mxCell id="Ebhskz-XtMlUNa1snjmE-24" value="Nhận thông báo trục trặc kỹ thuật" style="ellipse;whiteSpace=wrap;html=1;" vertex="1" parent="1">
          <mxGeometry x="370" y="1915" width="120" height="70" as="geometry" />
        </mxCell>
        <mxCell id="Ebhskz-XtMlUNa1snjmE-25" value="Nhận thông báo cảm biến vượt ngưỡng" style="ellipse;whiteSpace=wrap;html=1;" vertex="1" parent="1">
          <mxGeometry x="519.75" y="1890" width="123" height="70" as="geometry" />
        </mxCell>
        <mxCell id="Ebhskz-XtMlUNa1snjmE-26" value="Nhận thông báo cảm biến hồng ngoại" style="ellipse;whiteSpace=wrap;html=1;" vertex="1" parent="1">
          <mxGeometry x="692" y="1900" width="130" height="70" as="geometry" />
        </mxCell>
        <mxCell id="Ebhskz-XtMlUNa1snjmE-27" value="" style="endArrow=classic;html=1;rounded=0;strokeColor=#5EFF00;exitX=0;exitY=0.3333333333333333;exitDx=0;exitDy=0;exitPerimeter=0;entryX=1;entryY=0.5;entryDx=0;entryDy=0;edgeStyle=orthogonalEdgeStyle;" edge="1" parent="1" source="Ebhskz-XtMlUNa1snjmE-11" target="Ebhskz-XtMlUNa1snjmE-36">
          <mxGeometry width="50" height="50" relative="1" as="geometry">
            <mxPoint x="680" y="1680" as="sourcePoint" />
            <mxPoint x="730" y="1630" as="targetPoint" />
            <Array as="points">
              <mxPoint x="1070" y="1290" />
              <mxPoint x="1070" y="2030" />
            </Array>
          </mxGeometry>
        </mxCell>
        <mxCell id="Ebhskz-XtMlUNa1snjmE-28" value="" style="endArrow=classic;html=1;rounded=0;strokeColor=#006aff;exitX=1;exitY=0.3333333333333333;exitDx=0;exitDy=0;exitPerimeter=0;entryX=0;entryY=0.5;entryDx=0;entryDy=0;edgeStyle=orthogonalEdgeStyle;" edge="1" parent="1" source="Ebhskz-XtMlUNa1snjmE-1" target="Ebhskz-XtMlUNa1snjmE-36">
          <mxGeometry width="50" height="50" relative="1" as="geometry">
            <mxPoint x="680" y="1770" as="sourcePoint" />
            <mxPoint x="730" y="1720" as="targetPoint" />
            <Array as="points">
              <mxPoint x="150" y="1340" />
              <mxPoint x="150" y="2030" />
            </Array>
          </mxGeometry>
        </mxCell>
        <mxCell id="Ebhskz-XtMlUNa1snjmE-29" value="&amp;lt;&amp;lt;extend&amp;gt;&amp;gt;" style="endArrow=classic;html=1;rounded=0;dashed=1;" edge="1" parent="1" source="Ebhskz-XtMlUNa1snjmE-22" target="Ebhskz-XtMlUNa1snjmE-3">
          <mxGeometry width="50" height="50" relative="1" as="geometry">
            <mxPoint x="462" y="1556" as="sourcePoint" />
            <mxPoint x="360" y="1451" as="targetPoint" />
          </mxGeometry>
        </mxCell>
        <mxCell id="Ebhskz-XtMlUNa1snjmE-30" value="&amp;lt;&amp;lt;extend&amp;gt;&amp;gt;" style="endArrow=classic;html=1;rounded=0;dashed=1;" edge="1" parent="1" source="Ebhskz-XtMlUNa1snjmE-23" target="Ebhskz-XtMlUNa1snjmE-19">
          <mxGeometry width="50" height="50" relative="1" as="geometry">
            <mxPoint x="785" y="1734" as="sourcePoint" />
            <mxPoint x="706" y="1681" as="targetPoint" />
          </mxGeometry>
        </mxCell>
        <mxCell id="Ebhskz-XtMlUNa1snjmE-31" value="Cloud server" style="shape=umlActor;verticalLabelPosition=bottom;verticalAlign=top;html=1;outlineConnect=0;" vertex="1" parent="1">
          <mxGeometry x="90" y="2170" width="30" height="60" as="geometry" />
        </mxCell>
        <mxCell id="Ebhskz-XtMlUNa1snjmE-32" value="Danh sách cảm biến" style="ellipse;whiteSpace=wrap;html=1;" vertex="1" parent="1">
          <mxGeometry x="537" y="1810" width="135" height="60" as="geometry" />
        </mxCell>
        <mxCell id="Ebhskz-XtMlUNa1snjmE-33" value="&amp;lt;&amp;lt;extend&amp;gt;&amp;gt;" style="endArrow=classic;html=1;rounded=0;dashed=1;" edge="1" parent="1" source="Ebhskz-XtMlUNa1snjmE-3" target="Ebhskz-XtMlUNa1snjmE-4">
          <mxGeometry x="-0.0094" width="50" height="50" relative="1" as="geometry">
            <mxPoint x="785" y="1734" as="sourcePoint" />
            <mxPoint x="706" y="1681" as="targetPoint" />
            <mxPoint as="offset" />
          </mxGeometry>
        </mxCell>
        <mxCell id="Ebhskz-XtMlUNa1snjmE-34" value="&amp;lt;&amp;lt;extend&amp;gt;&amp;gt;" style="endArrow=classic;html=1;rounded=0;dashed=1;" edge="1" parent="1" source="Ebhskz-XtMlUNa1snjmE-19" target="Ebhskz-XtMlUNa1snjmE-32">
          <mxGeometry width="50" height="50" relative="1" as="geometry">
            <mxPoint x="597" y="1660" as="sourcePoint" />
            <mxPoint x="490" y="1700" as="targetPoint" />
          </mxGeometry>
        </mxCell>
        <mxCell id="Ebhskz-XtMlUNa1snjmE-35" value="Điều khiển thiết bị" style="ellipse;whiteSpace=wrap;html=1;" vertex="1" parent="1">
          <mxGeometry x="419.25" y="2120" width="131.75" height="60" as="geometry" />
        </mxCell>
        <mxCell id="Ebhskz-XtMlUNa1snjmE-36" value="Nhận thông báo&amp;nbsp;" style="ellipse;whiteSpace=wrap;html=1;" vertex="1" parent="1">
          <mxGeometry x="519.75" y="2000" width="100.5" height="60" as="geometry" />
        </mxCell>
        <mxCell id="Ebhskz-XtMlUNa1snjmE-37" value="&amp;lt;&amp;lt;extend&amp;gt;&amp;gt;" style="endArrow=classic;html=1;rounded=0;dashed=1;" edge="1" parent="1" source="Ebhskz-XtMlUNa1snjmE-24" target="Ebhskz-XtMlUNa1snjmE-36">
          <mxGeometry width="50" height="50" relative="1" as="geometry">
            <mxPoint x="730" y="1903" as="sourcePoint" />
            <mxPoint x="692" y="1851" as="targetPoint" />
          </mxGeometry>
        </mxCell>
        <mxCell id="Ebhskz-XtMlUNa1snjmE-38" value="&amp;lt;&amp;lt;extend&amp;gt;&amp;gt;" style="endArrow=classic;html=1;rounded=0;dashed=1;" edge="1" parent="1" source="Ebhskz-XtMlUNa1snjmE-25" target="Ebhskz-XtMlUNa1snjmE-36">
          <mxGeometry width="50" height="50" relative="1" as="geometry">
            <mxPoint x="483" y="1917" as="sourcePoint" />
            <mxPoint x="436" y="1954" as="targetPoint" />
          </mxGeometry>
        </mxCell>
        <mxCell id="Ebhskz-XtMlUNa1snjmE-39" value="&amp;lt;&amp;lt;extend&amp;gt;&amp;gt;" style="endArrow=classic;html=1;rounded=0;dashed=1;" edge="1" parent="1" source="Ebhskz-XtMlUNa1snjmE-26" target="Ebhskz-XtMlUNa1snjmE-36">
          <mxGeometry width="50" height="50" relative="1" as="geometry">
            <mxPoint x="564" y="1975" as="sourcePoint" />
            <mxPoint x="451" y="1975" as="targetPoint" />
          </mxGeometry>
        </mxCell>
        <mxCell id="Ebhskz-XtMlUNa1snjmE-40" value="Gửi/nhận thông tin&amp;nbsp;" style="ellipse;whiteSpace=wrap;html=1;" vertex="1" parent="1">
          <mxGeometry x="580" y="2190" width="131.5" height="70" as="geometry" />
        </mxCell>
        <mxCell id="Ebhskz-XtMlUNa1snjmE-41" value="" style="endArrow=classic;html=1;rounded=0;exitX=1;exitY=0.3333333333333333;exitDx=0;exitDy=0;exitPerimeter=0;entryX=0;entryY=0.5;entryDx=0;entryDy=0;fillColor=#e1d5e7;strokeColor=#ae00ff;edgeStyle=orthogonalEdgeStyle;" edge="1" parent="1" source="Ebhskz-XtMlUNa1snjmE-31" target="Ebhskz-XtMlUNa1snjmE-35">
          <mxGeometry width="50" height="50" relative="1" as="geometry">
            <mxPoint x="290" y="1960" as="sourcePoint" />
            <mxPoint x="340" y="1910" as="targetPoint" />
            <Array as="points">
              <mxPoint x="160" y="2190" />
              <mxPoint x="160" y="2150" />
            </Array>
          </mxGeometry>
        </mxCell>
        <mxCell id="Ebhskz-XtMlUNa1snjmE-42" value="" style="endArrow=classic;html=1;rounded=0;exitX=1;exitY=0.3333333333333333;exitDx=0;exitDy=0;exitPerimeter=0;entryX=0;entryY=0.5;entryDx=0;entryDy=0;fillColor=#e1d5e7;strokeColor=#ae00ff;edgeStyle=orthogonalEdgeStyle;" edge="1" parent="1" source="Ebhskz-XtMlUNa1snjmE-31" target="Ebhskz-XtMlUNa1snjmE-40">
          <mxGeometry width="50" height="50" relative="1" as="geometry">
            <mxPoint x="140" y="2190" as="sourcePoint" />
            <mxPoint x="287" y="2110" as="targetPoint" />
            <Array as="points">
              <mxPoint x="160" y="2190" />
              <mxPoint x="160" y="2225" />
            </Array>
          </mxGeometry>
        </mxCell>
        <mxCell id="Ebhskz-XtMlUNa1snjmE-43" value="Gửi thông báo&amp;nbsp;" style="ellipse;whiteSpace=wrap;html=1;" vertex="1" parent="1">
          <mxGeometry x="419.25" y="2050" width="100.5" height="60" as="geometry" />
        </mxCell>
        <mxCell id="Ebhskz-XtMlUNa1snjmE-44" value="" style="endArrow=classic;html=1;rounded=0;entryX=0;entryY=0.5;entryDx=0;entryDy=0;exitX=1;exitY=0.3333333333333333;exitDx=0;exitDy=0;exitPerimeter=0;edgeStyle=orthogonalEdgeStyle;fillColor=#e1d5e7;strokeColor=#ae00ff;" edge="1" parent="1" source="Ebhskz-XtMlUNa1snjmE-31" target="Ebhskz-XtMlUNa1snjmE-43">
          <mxGeometry width="50" height="50" relative="1" as="geometry">
            <mxPoint x="130" y="2240" as="sourcePoint" />
            <mxPoint x="328" y="2210" as="targetPoint" />
            <Array as="points">
              <mxPoint x="160" y="2190" />
              <mxPoint x="160" y="2080" />
            </Array>
          </mxGeometry>
        </mxCell>
        <mxCell id="Ebhskz-XtMlUNa1snjmE-45" value="Thiết lập cảm biến" style="ellipse;whiteSpace=wrap;html=1;" vertex="1" parent="1">
          <mxGeometry x="506" y="1650" width="106" height="60" as="geometry" />
        </mxCell>
        <mxCell id="Ebhskz-XtMlUNa1snjmE-46" value="Gửi thông tin đến&lt;br&gt;màn hình LCD" style="ellipse;whiteSpace=wrap;html=1;" vertex="1" parent="1">
          <mxGeometry x="419.5" y="2270" width="131.5" height="70" as="geometry" />
        </mxCell>
        <mxCell id="Ebhskz-XtMlUNa1snjmE-47" value="" style="endArrow=classic;html=1;rounded=0;exitX=1;exitY=0.3333333333333333;exitDx=0;exitDy=0;exitPerimeter=0;entryX=0;entryY=0.5;entryDx=0;entryDy=0;fillColor=#e1d5e7;strokeColor=#ae00ff;edgeStyle=orthogonalEdgeStyle;" edge="1" parent="1" source="Ebhskz-XtMlUNa1snjmE-31" target="Ebhskz-XtMlUNa1snjmE-46">
          <mxGeometry width="50" height="50" relative="1" as="geometry">
            <mxPoint x="130" y="2240" as="sourcePoint" />
            <mxPoint x="357" y="2235" as="targetPoint" />
            <Array as="points">
              <mxPoint x="120" y="2190" />
              <mxPoint x="160" y="2190" />
              <mxPoint x="160" y="2305" />
            </Array>
          </mxGeometry>
        </mxCell>
        <mxCell id="Ebhskz-XtMlUNa1snjmE-48" value="" style="endArrow=none;html=1;rounded=0;" edge="1" parent="1">
          <mxGeometry width="50" height="50" relative="1" as="geometry">
            <mxPoint x="1040" y="2350" as="sourcePoint" />
            <mxPoint x="1030" y="2350" as="targetPoint" />
            <Array as="points">
              <mxPoint x="200" y="2350" />
              <mxPoint x="200" y="1200" />
              <mxPoint x="600" y="1200" />
              <mxPoint x="1030" y="1200" />
            </Array>
          </mxGeometry>
        </mxCell>
        <mxCell id="Ebhskz-XtMlUNa1snjmE-49" value="" style="endArrow=classic;html=1;rounded=0;exitX=0;exitY=0.3333333333333333;exitDx=0;exitDy=0;exitPerimeter=0;entryX=1;entryY=0.5;entryDx=0;entryDy=0;strokeColor=#5EFF00;edgeStyle=orthogonalEdgeStyle;" edge="1" parent="1" source="Ebhskz-XtMlUNa1snjmE-11" target="Ebhskz-XtMlUNa1snjmE-4">
          <mxGeometry width="50" height="50" relative="1" as="geometry">
            <mxPoint x="540" y="1490" as="sourcePoint" />
            <mxPoint x="590" y="1440" as="targetPoint" />
            <Array as="points">
              <mxPoint x="1070" y="1290" />
              <mxPoint x="1070" y="1610" />
            </Array>
          </mxGeometry>
        </mxCell>
        <mxCell id="Ebhskz-XtMlUNa1snjmE-50" value="Tạo tài khoản mới" style="ellipse;whiteSpace=wrap;html=1;" vertex="1" parent="1">
          <mxGeometry x="770" y="1270" width="106" height="60" as="geometry" />
        </mxCell>
        <mxCell id="Ebhskz-XtMlUNa1snjmE-51" value="Xóa tài khoản" style="ellipse;whiteSpace=wrap;html=1;" vertex="1" parent="1">
          <mxGeometry x="770" y="1350" width="106" height="60" as="geometry" />
        </mxCell>
        <mxCell id="Ebhskz-XtMlUNa1snjmE-52" value="&amp;lt;&amp;lt;extend&amp;gt;&amp;gt;" style="endArrow=classic;html=1;rounded=0;dashed=1;" edge="1" parent="1" source="Ebhskz-XtMlUNa1snjmE-50" target="Ebhskz-XtMlUNa1snjmE-15">
          <mxGeometry width="50" height="50" relative="1" as="geometry">
            <mxPoint x="848" y="1530" as="sourcePoint" />
            <mxPoint x="712" y="1583" as="targetPoint" />
          </mxGeometry>
        </mxCell>
        <mxCell id="Ebhskz-XtMlUNa1snjmE-53" value="&amp;lt;&amp;lt;extend&amp;gt;&amp;gt;" style="endArrow=classic;html=1;rounded=0;dashed=1;" edge="1" parent="1" source="Ebhskz-XtMlUNa1snjmE-51" target="Ebhskz-XtMlUNa1snjmE-15">
          <mxGeometry width="50" height="50" relative="1" as="geometry">
            <mxPoint x="781" y="1315" as="sourcePoint" />
            <mxPoint x="700" y="1323" as="targetPoint" />
          </mxGeometry>
        </mxCell>
        <mxCell id="Ebhskz-XtMlUNa1snjmE-54" value="&amp;lt;&amp;lt;extend&amp;gt;&amp;gt;" style="endArrow=classic;html=1;rounded=0;dashed=1;" edge="1" parent="1" source="Ebhskz-XtMlUNa1snjmE-45" target="Ebhskz-XtMlUNa1snjmE-19">
          <mxGeometry width="50" height="50" relative="1" as="geometry">
            <mxPoint x="832" y="1710" as="sourcePoint" />
            <mxPoint x="760" y="1747" as="targetPoint" />
          </mxGeometry>
        </mxCell>
      </root>
    </mxGraphModel>
  </diagram>
</mxfile>
